<svg xmlns="http://www.w3.org/2000/svg" id="a" viewBox="0 0 919 268.49"><g><path d="m14.12,227.19C-.17,218.48-.25,212.73.08,200.75c.16-5.34,1.07-10.67,7.55-14.12,5.75-3.04,21.51-3.2,27.42.41,7.39,4.6,6.4,15.03,6.32,19.87h-16.91v-8.29c0-2.3-.9-3.12-2.13-3.53-.9-.25-2.63-.16-3.45.49-.74.66-1.23,1.23-1.23,3.28v4.84c0,5.75-.41,4.6,7.23,9.11l3.53,2.13c15.19,9.28,15.03,14.94,14.62,28.33-.16,5.58-.74,11.25-7.88,15.03-6.81,3.78-20.12,3.86-26.6-.08C.24,253.13.49,244.02.49,238.19v-4.84h17.16v12.4c0,1.15.08,2.46,1.23,3.37.99.74,2.55,1.07,3.78.49,1.4-.74,1.81-1.81,1.81-3.53v-7.23c0-4.02-1.89-6.9-7.55-10.02-.9-.57-2.79-1.64-2.79-1.64Z" style="fill:#f7941d;"></path><path d="m69.29,185.8v26.6h6.73v-26.6h18.64v73.32h-18.64v-30.87h-6.73v30.95h-18.31v-73.4h18.31Z" style="fill:#f7941d;"></path><path d="m146.88,185.8v51.73c0,7.8.16,15.19-8.79,20.53-6.98,4.11-19.38,3.53-26.03-.33-9.44-5.42-9.52-16.5-9.52-22.42v-49.51h18.64v55.42c0,4.43.74,7.14,3.78,7.14,3.37,0,3.53-2.71,3.53-7.23v-55.34h18.39Z" style="fill:#f7941d;"></path><path d="m173.24,224.8v34.32h-18.47v-73.32h17.82c3.94,0,17.65-.16,22.09,7.47,2.38,3.94,2.46,17.65.74,22.09-.66,1.48-2.79,4.93-8.21,5.42,7.23.66,10.43,5.17,10.35,16.42v21.92h-17.74v-23.89c-.08-6.9,0-6.32-.66-8.29-.99-1.81-3.12-2.22-5.91-2.13Zm0-27.01v16.09c2.79.08,4.6-.16,5.58-2.05.57-1.31.57-10.84,0-11.99-.99-1.89-2.79-2.22-5.58-2.05Z" style="fill:#f7941d;"></path><path d="m245.66,190.57c3.94,3.86,3.94,10.76,3.94,14.7v36.46c0,4.43.16,9.36-3.53,13.06-4.76,4.76-13.3,4.35-17.08,4.35h-23.56v-73.32h20.44c4.84,0,14.86-.16,19.79,4.76Zm-17.49,55.59c2.87-1.64,2.63-6.73,2.63-8.46v-29.64c-.08-1.31.25-7.22-1.4-9.03-1.23-1.4-3.04-1.48-5.67-1.48v49.02s3.53.08,4.43-.41Z" style="fill:#f7941d;"></path><path d="m290.07,185.8v15.03h-13.71v14.04h11.91v12.97h-11.91v16.83h13.63v14.45l-32.51.08v-73.4h32.6Z" style="fill:#f7941d;"></path><path d="m313.64,185.8l10.59,34.9v-34.9h15.52v73.32h-15.27l-11.08-34.73v34.73h-15.52v-73.32h15.76Z" style="fill:#f7941d;"></path><path d="m359.53,185.8c0,7.64.99,18.56-10.76,23.48l-.74-5.42c.74-.9,1.97-2.63,1.97-3.94h-2.87v-14.12h12.4Z" style="fill:#f7941d;"></path><path d="m381.21,227.19c-14.29-8.7-14.37-14.45-14.04-26.44.16-5.34,1.07-10.67,7.55-14.12,5.75-3.04,21.51-3.2,27.42.41,7.39,4.6,6.4,15.03,6.32,19.87h-16.91v-8.29c0-2.3-.9-3.12-2.13-3.53-.9-.25-2.63-.16-3.45.49-.74.66-1.23,1.23-1.23,3.28v4.84c0,5.75-.41,4.6,7.23,9.11l3.53,2.13c15.19,9.28,15.03,14.94,14.62,28.33-.17,5.58-.74,11.25-7.88,15.03-6.81,3.78-20.12,3.86-26.6-.08-8.29-5.09-8.05-14.2-8.05-20.03v-4.84h17.16v12.4c0,1.15.08,2.46,1.23,3.37.99.74,2.55,1.07,3.78.49,1.4-.74,1.81-1.81,1.81-3.53v-7.23c0-4.02-1.89-6.9-7.55-10.02-.9-.57-2.79-1.64-2.79-1.64Z" style="fill:#f7941d;"></path><path d="m454.37,224.8v34.32h-18.47v-73.32h17.82c3.94,0,17.65-.16,22.09,7.47,2.38,3.94,2.46,17.65.74,22.09-.66,1.48-2.79,4.93-8.21,5.42,7.23.66,10.43,5.17,10.35,16.42v21.92h-17.74v-23.89c-.08-6.9,0-6.32-.66-8.29-.99-1.81-3.12-2.22-5.91-2.13Zm0-27.01v16.09c2.79.08,4.6-.16,5.58-2.05.58-1.31.58-10.84,0-11.99-.99-1.89-2.79-2.22-5.58-2.05Z" style="fill:#f7941d;"></path><path d="m521.12,258.06c-6.57,3.7-18.97,3.86-25.7-.08-7.96-4.68-8.79-13.71-8.87-19.46v-31.12c-.25-5.83,0-14.86,8.62-19.95,7.23-4.27,19.13-3.86,26.44.41,9.36,5.25,8.87,16.18,8.87,23.07v24.14c0,7.06.41,17.41-9.36,22.99Zm-12.32-61.58c-3.12,0-3.61,3.04-3.61,7.47v36.95c0,4.43.49,7.23,3.61,7.23,3.53,0,3.37-2.87,3.37-7.31v-36.78c0-4.43.16-7.55-3.37-7.55Z" style="fill:#f7941d;"></path><path d="m572.84,258.06c-6.57,3.7-18.97,3.86-25.7-.08-7.96-4.68-8.79-13.71-8.87-19.46v-31.12c-.25-5.83,0-14.86,8.62-19.95,7.23-4.27,19.13-3.86,26.44.41,9.36,5.25,8.87,16.18,8.87,23.07v24.14c0,7.06.41,17.41-9.36,22.99Zm-12.32-61.58c-3.12,0-3.61,3.04-3.61,7.47v36.95c0,4.43.49,7.23,3.61,7.23,3.53,0,3.37-2.87,3.37-7.31v-36.78c0-4.43.16-7.55-3.37-7.55Z" style="fill:#f7941d;"></path><path d="m622.03,200.5h-13.38v14.37h11.33v13.22h-11.33v31.04h-18.64v-73.32h32.02v14.7Z" style="fill:#f7941d;"></path><path d="m648.87,259.12h-18.97v-73.32h18.97v73.32Z" style="fill:#f7941d;"></path><path d="m672.52,185.8l10.59,34.9v-34.9h15.52v73.32h-15.27l-11.08-34.73v34.73h-15.52v-73.32h15.76Z" style="fill:#f7941d;"></path><path d="m739.52,259.12l-2.05-4.19c-6.32,6.65-12.64,7.31-19.3,4.68-9.77-4.02-11.66-13.79-11.66-21.92v-30.63c0-5.75,0-14.78,8.62-19.95,7.23-4.19,19.13-3.78,26.44.41,9.36,5.34,8.87,16.26,8.87,23.15v2.05h-18.31v-8.95c0-4.43.16-7.55-3.37-7.55-3.12,0-3.61,3.04-3.61,7.47v36.95c0,4.43.74,7.14,3.78,7.14,3.53,0,3.61-2.79,3.61-7.23v-10.26h-3.78v-10.84h22.58v39.66h-11.82Z" style="fill:#f7941d;"></path><path d="m771.62,245c0,7.64.99,18.56-10.76,23.48l-.74-5.42c.74-.9,1.97-2.63,1.97-3.94h-2.87v-14.12h12.4Z" style="fill:#f7941d;"></path><path d="m816.12,185.8v59.2h12.07v14.12h-30.87v-73.32h18.8Z" style="fill:#f7941d;"></path><path d="m854.88,185.8v59.2h12.07v14.12h-30.87v-73.32h18.8Z" style="fill:#f7941d;"></path><path d="m897.08,248.12c3.53,0,3.37-2.87,3.37-7.31v-12.48h18.56v6.73c0,7.06.33,17.24-9.36,22.91-6.57,3.69-19.21,3.94-25.95,0-7.96-4.68-8.79-13.71-8.87-19.46v-31.12c0-5.83,0-14.86,8.62-19.95,7.23-4.27,19.13-3.86,26.44.41,9.36,5.25,8.87,16.18,8.87,23.07v4.43h-18.31v-11.33c0-4.43.16-7.55-3.37-7.55-3.12,0-3.61,3.04-3.61,7.47v36.95c0,4.43.49,7.23,3.61,7.23Z" style="fill:#f7941d;"></path></g><g><path d="m232.84,67.67l-.05-.02-.03.03s.05-.01.08-.02Z" style="fill:#831514;"></path><path d="m458.34,35.2l-132.61,140.32h11.61s120.97-128.1,121.01-128.14c-.95,1.01,121.48,128.14,121.48,128.14h11.48L458.34,35.2Z" style="fill:#f7941d;"></path><polygon points="456.1 143.07 456.1 143.07 429.65 143.07 429.65 143.64 429.65 143.98 429.65 144.41 429.65 169.96 456.1 169.96 456.53 169.96 456.53 169.96 456.53 144.41 456.53 143.98 456.53 143.64 456.53 143.07 456.53 143.07 456.1 143.07" style="fill:#f7941d;"></polygon><polygon points="461.14 143.07 460.71 143.07 460.71 143.07 460.71 143.64 460.71 143.98 460.71 144.41 460.71 169.96 460.71 169.96 461.14 169.96 487.59 169.96 487.59 144.41 487.59 143.98 487.59 143.64 487.59 143.07 461.14 143.07 461.14 143.07" style="fill:#f7941d;"></polygon><path d="m429.65,139.8h0s26.45,0,26.45,0h.43v-26.88h0c-14.85,0-26.88,12.04-26.88,26.88Z" style="fill:#f7941d;"></path><path d="m460.71,112.92h0v26.88h26.88c0-14.85-12.04-26.88-26.88-26.88h0Z" style="fill:#f7941d;"></path><path d="m766.2,49.46l-.58-.71-8.19,9.97-4.61,5.62s-61.03,74.01-91.54,111.17h30.81l71.05-86.84,13.32-16.34,84.79,103.17h8.5l-103.55-126.05Z" style="fill:#f7941d;"></path><polygon points="767.69 86.95 769.1 88.66 840.36 175.51 855.27 175.51 856.94 175.51 776.45 76.91 767.69 86.95" style="fill:#414042;"></polygon><path d="m720.52,98.21c10.76-13.21,32.29-39.63,32.29-39.63l4.61-5.66,1.49-1.83-1.49.45-.08.03-4.53,1.35s-39.22,11.73-39.22,11.73c-47.77,14.29-145.51,43.54-145.51,43.54l.9.94.42.44,62.71,65.95h23.8s1.95,0,1.95,0c20.88-25.63,41.77-51.68,62.65-77.3Z" style="fill:#414042;"></path><path d="m566.05,112.73L467.84,9.95l-9.51-9.95s-15.74,16.54-15.91,16.72c-51.74,51.74-151.24,158.8-151.24,158.8h23.28L458.33,24.6l89.21,93.3,55.36,57.61h23.49-.67l-59.68-62.79Z" style="fill:#414042;"></path><polygon points="770.72 144.74 770.72 162.23 787.08 162.23 787.08 144.74 787.08 144.38 770.72 144.38 770.72 144.74" style="fill:#f7941d;"></polygon><polygon points="749.68 144.74 749.68 162.23 766.04 162.23 766.04 144.74 766.04 144.38 749.68 144.38 749.68 144.74" style="fill:#f7941d;"></polygon><path d="m771.14,122.28h-.42v17.85h16.36v-1.91c0-8.8-7.14-15.94-15.94-15.94Z" style="fill:#f7941d;"></path><path d="m749.68,138.22v1.91h16.36v-17.85h-.42c-8.8,0-15.94,7.14-15.94,15.94Z" style="fill:#f7941d;"></path><path d="m702.64,63.12s2.99-.9,2.99-.9c-16.49-20.05-50.6-61.54-50.6-61.54l-.7.86-82.74,100.79,31.51-9.43,60.26-74.03,2.77,3.32,4.61,5.6,29.62,36,2.27-.68Z" style="fill:#f7941d;"></path><polygon points="670.74 47.27 686.61 66.58 687.49 67.65 689.37 67.09 695.57 65.23 697.85 64.55 670.74 31.37 666.13 25.73 663.38 22.36 658.94 27.45 656.63 30.09 658.41 32.26 658.94 32.91 666.13 41.66 670.74 47.27" style="fill:#414042;"></polygon><polygon points="564.52 104.45 565.78 105.77 567.6 103.52 649.88 2.48 646.85 3.39 507.72 45.01 564.18 104.09 564.52 104.45" style="fill:#414042;"></polygon><polygon points="658.94 66.29 657.46 66.29 657.3 66.29 657.3 68.85 657.3 74.88 659.66 74.88 663.33 74.88 665.17 74.88 665.17 74.33 665.17 68.85 665.17 66.29 659.66 66.29 658.94 66.29" style="fill:#f7941d;"></polygon><polygon points="647.17 66.29 647.17 68.85 647.17 74.88 652.69 74.88 655.05 74.88 655.05 68.85 655.05 66.29 652.69 66.29 647.17 66.29" style="fill:#f7941d;"></polygon><path d="m665.17,63.53c0-.64-.08-1.26-.23-1.85-.65-2.69-2.67-4.84-5.29-5.66-.23-.07-.48-.14-.72-.19-.53-.11-1.08-.17-1.64-.17v8.59h7.87v-.72Z" style="fill:#f7941d;"></path><path d="m655.05,61.68v-6.03c-.24,0-.48.02-.72.04-.57.05-1.12.16-1.64.32-2.1.66-3.82,2.18-4.75,4.15-.23.48-.41.99-.54,1.51-.14.59-.23,1.21-.23,1.85v.72h7.87v-2.57Z" style="fill:#f7941d;"></path><path d="m154.66,48.75l-.58.71-103.55,126.05h8.5l84.79-103.17,84.36,103.17s30.81,0,30.81,0c-7.06-3.53-104.34-126.76-104.34-126.76Z" style="fill:#f7941d;"></path><polygon points="63.33 175.51 79.91 175.51 152.59 86.95 143.82 76.91 63.33 175.51" style="fill:#414042;"></polygon><path d="m348.46,108.79l1.27-1.34-186.8-55.89-.08-.03-1.49-.45,1.49,1.83s88.01,108.4,99.55,122.59h23.03l59.51-63.01,3.53-3.71Z" style="fill:#414042;"></path><polygon points="133.19 144.74 133.19 162.23 149.56 162.23 149.56 144.74 149.56 144.38 133.19 144.38 133.19 144.74" style="fill:#f7941d;"></polygon><polygon points="154.23 144.74 154.23 162.23 170.6 162.23 170.6 144.74 170.6 144.38 154.23 144.38 154.23 144.74" style="fill:#f7941d;"></polygon><path d="m133.19,138.22v1.91h16.36v-17.85h-.42c-8.8,0-15.94,7.14-15.94,15.94Z" style="fill:#f7941d;"></path><path d="m154.66,122.28h-.42v17.85h16.36v-1.91c0-8.8-7.14-15.94-15.94-15.94Z" style="fill:#f7941d;"></path><polygon points="317.18 92.9 348.68 102.33 265.24 .68 264.11 2.06 214.64 62.22 217.64 63.12 219.91 63.8 220.3 63.33 256.89 18.84 267.82 32.27 317.18 92.9" style="fill:#f7941d;"></polygon><polygon points="256.89 22.36 222.42 64.55 232.79 67.65 263.64 30.09 256.89 22.36" style="fill:#414042;"></polygon><polygon points="409.89 44.22 270.39 2.48 352.67 103.52 353.04 103.98 353.3 103.71 354.63 102.31 409.89 44.22" style="fill:#414042;"></polygon><polygon points="363.21 96.81 363.21 96.81 363.21 96.81 363.21 96.81" style="fill:#831514;"></polygon><polygon points="255.1 66.29 255.1 68.34 255.1 68.85 255.1 74.33 255.1 74.88 256.95 74.88 260.61 74.88 262.97 74.88 262.97 68.85 262.97 67.03 262.97 66.29 260.61 66.29 255.1 66.29" style="fill:#f7941d;"></polygon><polygon points="267.54 66.29 265.23 66.29 265.23 66.66 265.23 68.85 265.23 74.88 267.59 74.88 273.1 74.88 273.1 68.85 273.1 66.29 267.59 66.29 267.54 66.29" style="fill:#f7941d;"></polygon><path d="m262.97,62.36v-6.7c-.82,0-1.62.13-2.36.36-2.62.82-4.64,2.98-5.29,5.66-.14.59-.23,1.21-.23,1.85v.72h7.87v-1.89Z" style="fill:#f7941d;"></path><path d="m273.1,63.53c0-.64-.08-1.26-.23-1.85-.07-.29-.16-.58-.26-.86-.84-2.28-2.69-4.07-5.03-4.81-.75-.23-1.54-.36-2.36-.36v8.59h7.87v-.72Z" style="fill:#f7941d;"></path></g></svg>